<svg width="512" height="512" viewBox="0 0 512 512" fill="none" xmlns="http://www.w3.org/2000/svg">
<rect x="4" y="4" width="504" height="504" rx="12" stroke="#333333" stroke-width="8"/>
<path d="M52.36 135.016L248.584 129.64L247.432 155.368L193.672 160.744L169.864 386.536L127.624 390.376L108.424 169.192L54.664 174.568L52.36 135.016ZM370.852 197.224C370.852 178.28 363.044 164.072 347.428 154.6L292.9 194.152L272.932 152.68C287.268 144.488 300.324 138.6 312.1 135.016C323.876 131.432 339.876 129.64 360.1 129.64C392.868 129.64 419.108 135.784 438.82 148.072C441.124 154.984 442.276 161.64 442.276 168.04C442.276 192.872 429.604 217.192 404.26 241C413.22 241 421.284 242.024 428.452 244.072C438.692 254.056 446.372 265.064 451.492 277.096C456.868 288.872 459.556 303.848 459.556 322.024C459.556 346.344 452.132 364.52 437.284 376.552C422.692 388.328 398.884 394.216 365.86 394.216C332.836 394.216 301.732 386.28 272.548 370.408L290.98 335.848C319.14 354.024 351.14 363.752 386.98 365.032C390.82 350.696 392.74 332.648 392.74 310.888C392.74 289.128 390.82 274.92 386.98 268.264C371.108 272.36 356.004 278.76 341.668 287.464L331.684 274.792L337.06 269.8C348.324 259.048 356.772 247.016 362.404 233.704C368.036 220.392 370.852 208.232 370.852 197.224Z" fill="#333333"/>
</svg>
